# xmcd CD database file
#
# Track frame offsets:
#	150
#	18795
#	42067
#	61940
#	86452
#	107082
#	127220
#	149090
#	169257
#	190320
#
# Disc length: 2822 seconds
#
# Revision: 3
# Processed by: cddbd v1.5.2PL0 Copyright (c) Steve Scherf et al.
# Submitted via: CDex 1.70beta3
#
DISCID=890b040a
DTITLE=椎名へきる - Respiration
DYEAR=1995
DGENRE=seiyu
TTITLE0=空想メトロ
TTITLE1=攻撃は最大の防御
TTITLE2=2センチのせつなさ
TTITLE3=せつない笑顔 (Night Version)
TTITLE4=Kissが足りない
TTITLE5=少女爆弾
TTITLE6=優しかった人
TTITLE7=何も出来なくて
TTITLE8=NEVER NEVER
TTITLE9=T.R.Y.!!
EXTD=YEAR: 1995
EXTT0=
EXTT1=
EXTT2=
EXTT3=
EXTT4=
EXTT5=
EXTT6=
EXTT7=
EXTT8=
EXTT9=
PLAYORDER=
